<?xml version="1.0" encoding="UTF-8" standalone="no"?>
<svg
   xmlns:dc="http://purl.org/dc/elements/1.1/"
   xmlns:cc="http://creativecommons.org/ns#"
   xmlns:rdf="http://www.w3.org/1999/02/22-rdf-syntax-ns#"
   xmlns:svg="http://www.w3.org/2000/svg"
   xmlns="http://www.w3.org/2000/svg"
   height="72"
   width="72"
   id="svg2"
   xml:space="preserve"
   enable-background="new 0 0 60 48"
   viewBox="0 0 72 72"
   y="0px"
   x="0px"
   version="1.1"><metadata
     id="metadata60"><rdf:RDF><cc:Work
         rdf:about=""><dc:format>image/svg+xml</dc:format><dc:type
           rdf:resource="http://purl.org/dc/dcmitype/StillImage" /><dc:title></dc:title></cc:Work></rdf:RDF></metadata><defs
     id="defs58" /><g
     transform="translate(6,12)"
     id="g4"><path
       id="path6"
       d="m 53,14 0,-7 -7,0 0,-7 -46,0 0,34 7,0 0,7 7,0 0,7 46,0 0,-34 -7,0 z M 2,32 2,2 44,2 44,7 7,7 7,32 2,32 Z m 7,7 0,-5 0,-6 0,-6 0,-6 0,-6 0,-1 1,0 6,0 6,0 6,0 6,0 6,0 6,0 5,0 0,5 -2,0 -6,0 -6,0 -6,0 -6,0 -6,0 -5,0 0,5 0,6 0,6 0,6 0,2 -5,0 z m 49,7 -42,0 0,-5 0,-25 37,0 5,0 0,30 z" /><circle
       id="circle8"
       r="1"
       cy="10"
       cx="34" /><circle
       id="circle10"
       r="1"
       cy="13"
       cx="37" /><circle
       id="circle12"
       r="1"
       cy="10"
       cx="40" /><circle
       id="circle14"
       r="1"
       cy="10"
       cx="46" /><circle
       id="circle16"
       r="1"
       cy="13"
       cx="43" /><circle
       id="circle18"
       r="1"
       cy="13"
       cx="49" /><circle
       id="circle20"
       r="1"
       cy="10"
       cx="28" /><circle
       id="circle22"
       r="1"
       cy="13"
       cx="31" /><circle
       id="circle24"
       r="1"
       cy="10"
       cx="10" /><circle
       id="circle26"
       r="1"
       cy="16"
       cx="10" /><circle
       id="circle28"
       r="1"
       cy="13"
       cx="13" /><circle
       id="circle30"
       r="1"
       cy="19"
       cx="13" /><circle
       id="circle32"
       r="1"
       cy="10"
       cx="16" /><circle
       id="circle34"
       r="1"
       cy="10"
       cx="22" /><circle
       id="circle36"
       r="1"
       cy="13"
       cx="19" /><circle
       id="circle38"
       r="1"
       cy="13"
       cx="25" /><circle
       id="circle40"
       r="1"
       cy="22"
       cx="10" /><circle
       id="circle42"
       r="1"
       cy="28"
       cx="10" /><circle
       id="circle44"
       r="1"
       cy="25"
       cx="13" /><circle
       id="circle46"
       r="1"
       cy="31"
       cx="13" /><circle
       id="circle48"
       r="1"
       cy="34"
       cx="10" /><circle
       id="circle50"
       r="1"
       cy="37"
       cx="13" /></g></svg>